<svg width="30" height="30" viewBox="0 0 30 30" fill="none" xmlns="http://www.w3.org/2000/svg">
<path d="M25.6066 23.4363L6.51476 4.34441C5.92898 3.75863 4.97923 3.75863 4.39344 4.34441C3.80766 4.9302 3.80765 5.87995 4.39344 6.46573L23.4853 25.5576C24.0711 26.1434 25.0209 26.1434 25.6066 25.5576C26.1924 24.9718 26.1924 24.0221 25.6066 23.4363Z" fill="white"/>
<g clip-path="url(#clip0)">
<path d="M23.4362 4.39335L4.34435 23.4852C3.75857 24.071 3.75857 25.0208 4.34435 25.6066C4.93014 26.1923 5.87989 26.1923 6.46567 25.6066L25.5576 6.51467C26.1433 5.92889 26.1433 4.97914 25.5576 4.39335C24.9718 3.80757 24.022 3.80757 23.4362 4.39335Z" fill="white"/>
</g>
<defs>
<clipPath id="clip0">
<rect width="30" height="24" fill="white" transform="translate(3 30) rotate(-90)"/>
</clipPath>
</defs>
</svg>
